<?xml version="1.0" standalone="no"?>
<!DOCTYPE svg PUBLIC "-//W3C//DTD SVG 1.1//EN" "http://www.w3.org/Graphics/SVG/1.1/DTD/svg11.dtd" >
<svg xmlns="http://www.w3.org/2000/svg" xmlns:xlink="http://www.w3.org/1999/xlink" version="1.1">
<metadata></metadata>
<defs>
<font id="futurafuturislightcregular" horiz-adv-x="548" >
<font-face units-per-em="1000" ascent="776" descent="-224" />
<missing-glyph horiz-adv-x="233" />
<glyph unicode=" "  horiz-adv-x="233" />
<glyph unicode="&#x09;" horiz-adv-x="233" />
<glyph unicode="&#xa0;" horiz-adv-x="233" />
<glyph unicode="!" horiz-adv-x="232" d="M86 140v560h60v-560h-60zM70 35q0 19 13 32.5t33 13.5t33 -13.5t13 -32.5t-13 -32.5t-33 -13.5t-33 13.5t-13 32.5z" />
<glyph unicode="&#x22;" horiz-adv-x="338" d="M148 700l-29 -203h-42l-27 203h98zM288 700l-29 -203h-42l-27 203h98z" />
<glyph unicode="#" horiz-adv-x="796" d="M491 40h-56l25 145h-181l-25 -145h-56l25 145h-135l12 68h135l33 194h-135l12 68h135l25 145h56l-25 -145h181l25 145h56l-25 -145h135l-12 -68h-135l-33 -194h135l-12 -68h-135zM291 253h181l33 194h-181z" />
<glyph unicode="$" horiz-adv-x="521" d="M285 -18v-101h-54v101q-137 9 -203 155l64 32q7 -20 18.5 -38.5t31 -40.5t50.5 -35.5t69 -13.5q72 0 109 46t37 103q0 16 -2.5 30t-9 26.5t-12 22t-17.5 19t-19 15.5t-23.5 15t-23.5 12.5t-26 12.5t-25 12q-94 46 -137 88.5t-43 111.5q0 42 16 74.5t42.5 50t52 26 t51.5 11.5v88h54v-88q108 -6 159 -105l-55 -32q-36 80 -125 80q-67 0 -95 -32t-28 -71q0 -28 11.5 -50t40.5 -42t46 -29t60 -29q32 -15 48.5 -23t46 -28t44.5 -40t28 -52t13 -70q0 -85 -54.5 -145t-139.5 -67z" />
<glyph unicode="%" horiz-adv-x="790" d="M150 -21l413 742h49l-413 -742h-49zM185 440q44 0 74.5 33t30.5 80t-30.5 80t-74.5 33t-74.5 -33t-30.5 -80t30.5 -80t74.5 -33zM25 553q0 67 46.5 113.5t113.5 46.5t113.5 -46.5t46.5 -113.5t-46.5 -113.5t-113.5 -46.5t-113.5 46.5t-46.5 113.5zM445 162 q0 67 46.5 113.5t113.5 46.5t113.5 -46.5t46.5 -113.5t-46.5 -113.5t-113.5 -46.5t-113.5 46.5t-46.5 113.5zM605 49q44 0 74.5 33t30.5 80t-30.5 80t-74.5 33t-74.5 -33t-30.5 -80t30.5 -80t74.5 -33z" />
<glyph unicode="&#x26;" horiz-adv-x="625" d="M544 0l-80 101q-35 -43 -68 -70q-35 -29 -66.5 -39t-76.5 -10q-103 0 -155 60t-52 132q0 40 12 73.5t39 61.5t53.5 48.5t70.5 48.5q-28 33 -41 50t-27 47.5t-14 58.5q0 62 46 100t107 38q68 0 103 -39.5t35 -97.5q0 -46 -29.5 -83t-98.5 -86l167 -209l94 111l42 -34 l-102 -120l111 -142h-70zM430 142l-177 223q-42 -29 -61.5 -44.5t-42 -39.5t-31 -49t-8.5 -58q0 -57 42 -100.5t103 -43.5q46 0 79 22t96 90zM271 433q52 32 74.5 61t22.5 72q0 33 -22 59.5t-57 26.5t-62 -23.5t-27 -65.5q0 -59 71 -130z" />
<glyph unicode="'" horiz-adv-x="198" d="M148 700l-29 -203h-42l-27 203h98z" />
<glyph unicode="(" horiz-adv-x="218" d="M190 -210l-48 -13q-93 235 -93 486q0 118 25 247t68 238l48 -13q-77 -249 -77 -472q0 -224 77 -473z" />
<glyph unicode=")" horiz-adv-x="218" d="M28 735l48 13q43 -109 68 -238t25 -247q0 -251 -93 -486l-48 13q77 248 77 473q0 224 -77 472z" />
<glyph unicode="*" horiz-adv-x="407" d="M179 735h49v-126l108 63l25 -42l-108 -63l108 -63l-25 -42l-108 63v-126h-49v126l-108 -63l-25 42l108 63l-108 63l25 42l108 -63v126z" />
<glyph unicode="+" horiz-adv-x="600" d="M50 322v56h222v222h56v-222h222v-56h-222v-222h-56v222h-222z" />
<glyph unicode="," horiz-adv-x="253" d="M46 -134l91 246l70 -33l-125 -230z" />
<glyph unicode="-" horiz-adv-x="308" d="M42 288h224v-60h-224v60z" />
<glyph unicode="." horiz-adv-x="232" d="M70 35q0 19 13 32.5t33 13.5t33 -13.5t13 -32.5t-13 -32.5t-33 -13.5t-33 13.5t-13 32.5z" />
<glyph unicode="/" horiz-adv-x="476" d="M21 -210l378 945h56l-378 -945h-56z" />
<glyph unicode="0" d="M274 -20q-15 0 -27 1t-36.5 8.5t-43.5 20.5t-41.5 40.5t-37.5 65.5t-25 98.5t-10 135.5t10 135t25 98t37.5 65.5t41 41t43 21t37 8.5t27.5 1t27.5 -1t37 -8.5t43 -21t41 -41t37.5 -65.5t25 -98t10 -135t-10 -135.5t-25 -98.5t-37.5 -65.5t-41.5 -40.5t-43.5 -20.5 t-36.5 -8.5t-27 -1zM274 36q153 0 153 314t-153 314t-153 -314t153 -314z" />
<glyph unicode="1" d="M265 0v644h-119l27 56h160v-700h-68z" />
<glyph unicode="2" d="M487 56v-56h-437l167 179q129 138 167.5 197.5t38.5 128.5q0 67 -34.5 113t-99.5 46q-79 0 -122 -56t-41 -133h-68q1 101 60.5 173t175.5 72q91 0 144 -60.5t53 -155.5q0 -55 -21.5 -104.5t-75.5 -115.5q-30 -37 -97 -107.5t-111 -120.5h301z" />
<glyph unicode="3" d="M50 175h67q1 -52 36 -95.5t112 -43.5q69 0 113.5 42t44.5 108q0 39 -13.5 68t-31 44t-42.5 24.5t-40 11.5t-32 3h-31v56q18 -1 35 0q63 3 100.5 36.5t37.5 95.5q0 64 -38.5 101.5t-100.5 37.5q-118 0 -136 -134h-63q3 32 14 62t33 60.5t63.5 49t96.5 18.5 q87 0 140.5 -49.5t53.5 -136.5q0 -125 -112 -167v-2q21 -5 41 -15t43 -29t36.5 -53t13.5 -78q0 -94 -64 -152t-164 -58q-101 0 -156 57t-57 138z" />
<glyph unicode="4" d="M340 0v165h-315l363 555h16v-499h74v-56h-74v-165h-64zM340 221v337l-215 -337h215z" />
<glyph unicode="5" d="M454 644h-227l-52 -215q45 21 90 21q88 0 152 -58.5t64 -167.5q0 -110 -64 -177t-165 -67q-140 0 -212 138l52 29q60 -111 156 -111q83 0 124 54.5t41 136.5q0 15 -2 31t-11 42t-24.5 45.5t-47 34t-74.5 14.5q-91 0 -144 -52l-18 5l84 353h278v-56z" />
<glyph unicode="6" d="M350 720l54 -32l-205 -293q37 19 85 19q90 0 148.5 -58t58.5 -147q0 -28 -6 -57t-21.5 -60.5t-39 -55.5t-62.5 -40t-87 -16q-101 0 -159.5 59.5t-58.5 157.5q0 44 13 84.5t24.5 59t36.5 56.5zM274 36q73 0 111 47.5t38 118.5q0 73 -41.5 114.5t-107.5 41.5t-107.5 -42 t-41.5 -114q0 -70 38.5 -118t110.5 -48z" />
<glyph unicode="7" d="M100 5l311 639h-347v56h441l-350 -720z" />
<glyph unicode="8" d="M348 377v-2q64 -16 102 -66t38 -115q0 -93 -58.5 -153.5t-155.5 -60.5q-99 0 -156.5 60t-57.5 154q0 73 40.5 119.5t99.5 61.5v2q-46 14 -80.5 53t-34.5 108q0 93 58 137.5t131 44.5t131 -44.5t58 -137.5q0 -69 -34.5 -108t-80.5 -53zM274 400q54 0 90 37.5t36 94.5 q0 54 -31 93t-95 39q-36 0 -62.5 -14t-39.5 -35.5t-18.5 -42t-5.5 -40.5q0 -57 37.5 -94.5t88.5 -37.5zM274 36q68 0 108 44.5t40 112.5q0 66 -41.5 108.5t-106.5 42.5t-106.5 -42.5t-41.5 -108.5q0 -68 40 -112.5t108 -44.5z" />
<glyph unicode="9" d="M198 -20l-54 32l205 293q-37 -19 -85 -19q-90 0 -148.5 58t-58.5 147q0 28 6 57t21.5 60.5t39 55.5t62.5 40t87 16q101 0 159.5 -59.5t58.5 -157.5q0 -44 -13 -84.5t-24.5 -59t-36.5 -56.5zM274 664q-73 0 -111 -47.5t-38 -118.5q0 -73 41.5 -114.5t107.5 -41.5t107.5 42 t41.5 114q0 70 -38.5 118t-110.5 48z" />
<glyph unicode=":" horiz-adv-x="232" d="M70 399q0 19 13 32.5t33 13.5t33 -13.5t13 -32.5t-13 -32.5t-33 -13.5t-33 13.5t-13 32.5zM70 35q0 19 13 32.5t33 13.5t33 -13.5t13 -32.5t-13 -32.5t-33 -13.5t-33 13.5t-13 32.5z" />
<glyph unicode=";" horiz-adv-x="253" d="M108 399q0 19 13 32.5t33 13.5t33 -13.5t13 -32.5t-13 -32.5t-33 -13.5t-33 13.5t-13 32.5zM46 -134l91 246l70 -33l-125 -230z" />
<glyph unicode="&#x3c;" horiz-adv-x="500" d="M50 370l400 200v-56l-332 -164l332 -164v-56l-400 200v40z" />
<glyph unicode="=" horiz-adv-x="600" d="M50 388v56h500v-56h-500zM50 256v56h500v-56h-500z" />
<glyph unicode="&#x3e;" horiz-adv-x="500" d="M450 330l-400 -200v56l332 164l-332 164v56l400 -200v-40z" />
<glyph unicode="?" horiz-adv-x="459" d="M108 538h-59q0 30 9 59.5t29 58t58 46.5t90 18q79 0 127 -43.5t48 -118.5q0 -64 -32.5 -99t-112.5 -78q-33 -18 -49 -28t-34 -24.5t-25 -29.5t-7 -35q0 -27 19.5 -50.5t67.5 -23.5q51 0 72 26.5t21 58.5h55q0 -22 -6.5 -44t-21 -45t-45.5 -37.5t-74 -14.5 q-66 0 -109 34.5t-43 88.5q0 32 9.5 57t31 44.5t39 31t50.5 29.5l3 1.5t2.5 1.5t3 1.5t2.5 1.5q70 39 92.5 64.5t22.5 70.5q0 29 -9.5 49.5t-21.5 31t-29 16t-27 6.5t-20 1q-36 0 -62.5 -12.5t-39 -33.5t-18.5 -40t-7 -40zM182 35q0 19 13 32.5t33 13.5t33 -13.5t13 -32.5 t-13 -32.5t-33 -13.5t-33 13.5t-13 32.5z" />
<glyph unicode="@" horiz-adv-x="878" d="M638 530l-56 -259q-8 -36 6.5 -53.5t36.5 -17.5q46 0 87.5 45t41.5 125q0 137 -91.5 215.5t-228.5 78.5q-140 0 -224.5 -91t-84.5 -223q0 -80 28.5 -143.5t75.5 -101.5t102 -57.5t113 -19.5q85 0 156 46l29 -44q-84 -50 -185 -50q-166 0 -273 98t-107 272 q0 163 106.5 266.5t263.5 103.5q85 0 153.5 -24t109.5 -61.5t68.5 -85.5t38 -92.5t10.5 -86.5q0 -98 -61 -158t-140 -60q-68 0 -86 62q-56 -62 -136 -62q-66 0 -106.5 40.5t-40.5 113.5q0 88 61 162.5t153 74.5q79 0 111 -55l9 42h60zM402 200q69 0 107.5 65t38.5 135 q0 42 -21 68.5t-62 26.5q-70 0 -113 -58t-43 -129q0 -52 24.5 -80t68.5 -28z" />
<glyph unicode="A" horiz-adv-x="650" d="M11 0l314 720l314 -720h-70l-97 228h-294l-97 -228h-70zM202 284h246l-123 287z" />
<glyph unicode="B" horiz-adv-x="564" d="M88 700h144q227 0 227 -166q0 -54 -29 -94.5t-76 -58.5v-2q70 -5 115.5 -53t45.5 -126q0 -56 -22 -98t-58 -64t-77.5 -31t-85.5 -7h-184v700zM156 401h89q10 0 21 1t35.5 8t42 19.5t31.5 39t14 62.5q0 48 -33 80.5t-110 32.5h-90v-243zM156 56h116q92 0 132.5 42.5 t40.5 101.5q0 30 -9 54t-21.5 38.5t-32 25.5t-34.5 16t-34.5 7.5t-27.5 3t-17 0.5h-113v-289z" />
<glyph unicode="C" horiz-adv-x="700" d="M672 140v-78q-108 -82 -255 -82q-158 0 -259.5 106.5t-101.5 263.5q0 161 105 265.5t256 104.5q143 0 255 -84v-79q-109 107 -253 107q-119 0 -205 -90t-86 -224q0 -129 82 -221.5t208 -92.5q143 0 254 104z" />
<glyph unicode="D" horiz-adv-x="700" d="M88 0v700h174q180 0 281 -100t101 -250q0 -47 -11 -93t-39.5 -93.5t-70.5 -83t-109.5 -58t-151.5 -22.5h-174zM156 56h99q160 0 238.5 83t78.5 211q0 134 -86.5 214t-230.5 80h-99v-588z" />
<glyph unicode="E" horiz-adv-x="519" d="M88 0v700h375v-56h-307v-224h296v-56h-296v-308h307v-56h-375z" />
<glyph unicode="F" horiz-adv-x="450" d="M88 0v700h330v-56h-262v-224h255v-56h-255v-364h-68z" />
<glyph unicode="G" horiz-adv-x="815" d="M435 340h324q0 -69 -19 -130.5t-57.5 -114.5t-105.5 -84t-155 -31q-164 0 -265 101t-101 266q0 168 97.5 270.5t250.5 102.5q202 0 309 -161l-52 -38q-97 143 -258 143q-123 0 -199 -90.5t-76 -226.5q0 -138 80 -224.5t212 -86.5q121 0 193.5 74.5t73.5 173.5h-252v56z " />
<glyph unicode="H" horiz-adv-x="715" d="M88 0v700h68v-287h403v287h68v-700h-68v357h-403v-357h-68z" />
<glyph unicode="I" horiz-adv-x="244" d="M88 0v700h68v-700h-68z" />
<glyph unicode="J" horiz-adv-x="402" d="M0 47l43 45q42 -56 104 -56q57 0 78 37t21 115v512h68v-516q0 -21 -0.5 -32t-3.5 -35.5t-8.5 -40t-18 -35.5t-30.5 -32t-46 -20.5t-63 -8.5q-83 0 -144 67z" />
<glyph unicode="K" horiz-adv-x="571" d="M88 0v700h68v-325l313 325h84l-332 -339l339 -361h-91l-313 340v-340h-68z" />
<glyph unicode="L" horiz-adv-x="393" d="M88 0v700h68v-644h226v-56h-294z" />
<glyph unicode="M" horiz-adv-x="858" d="M42 0l95 728l292 -624l292 624l95 -728h-63l-67 518l-257 -546l-257 546l-67 -518h-63z" />
<glyph unicode="N" horiz-adv-x="775" d="M88 0v728l531 -585v557h68v-728l-531 585v-557h-68z" />
<glyph unicode="O" horiz-adv-x="868" d="M434 -20q-159 0 -268.5 103.5t-109.5 266.5t109.5 266.5t268.5 103.5t268.5 -103.5t109.5 -266.5t-109.5 -266.5t-268.5 -103.5zM434 36q130 0 218 88.5t88 225.5t-88 225.5t-218 88.5t-218 -88.5t-88 -225.5t88 -225.5t218 -88.5z" />
<glyph unicode="P" horiz-adv-x="538" d="M88 0v700h194q210 0 210 -185q0 -186 -210 -186h-126v-329h-68zM156 644v-259h123q143 0 143 130q0 129 -143 129h-123z" />
<glyph unicode="Q" horiz-adv-x="868" d="M785 -49h-70l-73 85q-88 -56 -208 -56q-161 0 -269.5 103.5t-108.5 266.5t108.5 266.5t269.5 103.5q159 0 268.5 -103.5t109.5 -266.5q0 -83 -32 -158t-96 -124zM519 259l123 -143q33 28 54.5 64.5t30 72.5t11 57t2.5 40q0 136 -88.5 225t-217.5 89q-130 0 -218 -88.5 t-88 -225.5t88 -225.5t218 -88.5q94 0 167 47l-152 176h70z" />
<glyph unicode="R" horiz-adv-x="516" d="M88 0v700h187q18 0 37 -2.5t50 -13.5t54 -29.5t40.5 -56t17.5 -87.5q0 -75 -50.5 -127.5t-169.5 -60.5l248 -323h-80l-240 322h-26v-322h-68zM156 378h70q178 0 178 133q0 42 -13 69.5t-38 40.5t-50.5 18t-60.5 5h-86v-266z" />
<glyph unicode="S" horiz-adv-x="521" d="M443 614l-54 -32q-36 82 -126 82q-66 0 -95.5 -33.5t-29.5 -73.5q0 -22 8.5 -40.5t20 -32t33 -27t38.5 -22t44 -21.5q10 -5 15 -7q31 -14 41 -19t38.5 -21.5t41 -30t30 -35t24.5 -48.5t7 -59q0 -91 -63 -152.5t-162 -61.5q-64 0 -114 28.5t-73 60t-39 68.5l64 32 q18 -54 60 -93.5t108 -39.5q65 0 106 44t41 110q0 61 -36 93t-121 72q-40 18 -66 33.5t-56 40t-45 56t-15 70.5q0 27 8.5 52.5t28 52.5t59.5 43.5t96 16.5q134 0 183 -106z" />
<glyph unicode="T" horiz-adv-x="464" d="M198 0v644h-187v56h442v-56h-187v-644h-68z" />
<glyph unicode="U" horiz-adv-x="650" d="M505 700h68v-439q0 -18 -1 -34t-6 -46t-14 -54.5t-28 -53t-44 -48t-65 -32.5t-90 -13t-90 13t-65 32.5t-44 48t-28 53t-14 54.5t-6 46t-1 34v439h68v-449q0 -16 1.5 -33.5t11 -53t27 -61.5t54 -46.5t86.5 -20.5t86.5 20.5t54 46.5t27 61.5t11 53t1.5 33.5v449z" />
<glyph unicode="V" horiz-adv-x="568" d="M284 -28l-273 728h74l199 -553l199 553h74z" />
<glyph unicode="W" horiz-adv-x="938" d="M469 556l-213 -584l-249 728h77l173 -553l212 573l212 -573l173 553h77l-249 -728z" />
<glyph unicode="X" horiz-adv-x="506" d="M7 0l211 357l-195 343h76l154 -286l154 286h76l-195 -343l211 -357h-76l-170 304l-170 -304h-76z" />
<glyph unicode="Y" horiz-adv-x="526" d="M229 0v322l-222 378h76l180 -316l180 316h76l-222 -378v-322h-68z" />
<glyph unicode="Z" horiz-adv-x="553" d="M56 700h469l-399 -644h399v-56h-511l400 644h-358v56z" />
<glyph unicode="[" horiz-adv-x="320" d="M292 -210h-204v945h204v-56h-140v-833h140v-56z" />
<glyph unicode="\" horiz-adv-x="476" d="M455 -210h-56l-378 945h56z" />
<glyph unicode="]" horiz-adv-x="320" d="M28 735h204v-945h-204v56h140v833h-140v56z" />
<glyph unicode="^" horiz-adv-x="480" d="M240 666l-132 -166h-68l156 200h88l156 -200h-68z" />
<glyph unicode="_" horiz-adv-x="500" d="M0 -154h500v-56h-500v56z" />
<glyph unicode="`" horiz-adv-x="250" d="M18 637h98l74 -126h-56z" />
<glyph unicode="a" horiz-adv-x="562" d="M432 357v77h56v-434h-56v74q-25 -45 -68 -68.5t-92 -23.5q-101 0 -163.5 67.5t-62.5 167.5q0 102 63.5 168.5t163.5 66.5q108 0 159 -95zM272 30q70 0 115 51.5t45 135.5q0 79 -44 133t-114 54q-71 0 -117.5 -53t-46.5 -134q0 -78 44.5 -132.5t117.5 -54.5z" />
<glyph unicode="b" horiz-adv-x="562" d="M74 735h60v-371q52 88 158 88q100 0 162 -65t62 -170q0 -101 -60.5 -168t-161.5 -67q-110 0 -164 92v-74h-56v735zM294 30q73 0 115.5 53t42.5 134q0 75 -41.5 131t-124.5 56q-69 0 -112.5 -54.5t-43.5 -132.5q0 -87 48.5 -137t115.5 -50z" />
<glyph unicode="c" horiz-adv-x="457" d="M429 84v-63q-64 -39 -134 -39q-108 0 -178.5 66t-70.5 169q0 104 70 169.5t178 65.5q82 0 135 -37v-59q-68 48 -131 48q-86 0 -137 -54t-51 -133q0 -84 52 -135.5t130 -51.5q76 0 137 54z" />
<glyph unicode="d" horiz-adv-x="562" d="M488 0h-56v74q-25 -45 -68 -68.5t-92 -23.5q-91 0 -158.5 61.5t-67.5 173.5q0 101 64 168t164 67q105 0 154 -88v371h60v-735zM272 30q71 0 115.5 51t44.5 136q0 78 -44 132.5t-114 54.5q-79 0 -121.5 -57.5t-42.5 -129.5q0 -79 44.5 -133t117.5 -54z" />
<glyph unicode="e" horiz-adv-x="515" d="M423 137l46 -23q-66 -132 -200 -132q-103 0 -163 70.5t-60 164.5q0 98 59.5 166.5t163.5 68.5q53 0 93.5 -21t62.5 -54t33 -67.5t11 -68.5v-29h-359q-2 -70 41 -126t118 -56q103 0 154 107zM115 260h294q-2 57 -39.5 100.5t-99.5 43.5q-61 0 -103.5 -40t-51.5 -104z" />
<glyph unicode="f" horiz-adv-x="260" d="M88 0v386h-70v48h70v194q0 116 100 116q35 0 58 -9v-51q-23 12 -46 12q-52 0 -52 -70v-192h98v-48h-98v-386h-60z" />
<glyph unicode="g" horiz-adv-x="562" d="M65 -81h66q12 -47 51.5 -71t90.5 -24q29 0 53 7.5t49 26.5t39 59t14 97v53q-54 -85 -156 -85q-91 0 -158.5 61.5t-67.5 173.5q0 102 63 168.5t165 66.5q110 0 158 -95v77h56v-420q0 -109 -56 -173.5t-159 -64.5q-173 0 -208 143zM272 30q70 0 115 51.5t45 135.5 q0 79 -44 133t-114 54q-79 0 -121.5 -57.5t-42.5 -129.5q0 -78 44.5 -132.5t117.5 -54.5z" />
<glyph unicode="h" horiz-adv-x="505" d="M74 0v735h60v-373q46 90 146 90q42 0 72.5 -16t45 -36t23 -48.5t9.5 -43.5t1 -30v-278h-60v270q0 25 -2.5 44t-11.5 42t-30.5 35.5t-53.5 12.5q-60 0 -99.5 -51t-39.5 -127v-226h-60z" />
<glyph unicode="i" horiz-adv-x="208" d="M74 434h60v-434h-60v434zM58 581q0 19 13 32.5t33 13.5t33 -13.5t13 -32.5t-13 -32.5t-33 -13.5t-33 13.5t-13 32.5z" />
<glyph unicode="j" horiz-adv-x="208" d="M74 434h60v-644h-60v644zM58 581q0 19 13 32.5t33 13.5t33 -13.5t13 -32.5t-13 -32.5t-33 -13.5t-33 13.5t-13 32.5z" />
<glyph unicode="k" horiz-adv-x="461" d="M74 0v735h60v-477l194 176h82l-213 -187l253 -247h-87l-209 210l-20 -17v-193h-60z" />
<glyph unicode="l" horiz-adv-x="208" d="M74 0v735h60v-735h-60z" />
<glyph unicode="m" horiz-adv-x="760" d="M134 359q54 93 147 93q49 0 80 -26t40 -65q49 91 152 91q37 0 64 -14.5t40 -33t20 -46t8 -41.5t1 -31v-286h-60v286q0 118 -86 118q-54 0 -92 -47t-38 -125v-232h-60v283q0 121 -84 121q-56 0 -94 -52.5t-38 -119.5v-232h-60v434h60v-75z" />
<glyph unicode="n" horiz-adv-x="505" d="M74 0v434h60v-72q46 90 146 90q42 0 72.5 -16t45 -36t23 -48.5t9.5 -43.5t1 -30v-278h-60v270q0 25 -2.5 44t-11.5 42t-30.5 35.5t-53.5 12.5q-60 0 -99.5 -51t-39.5 -127v-226h-60z" />
<glyph unicode="o" horiz-adv-x="564" d="M282 -18q-104 0 -170 66.5t-66 168.5t66 168.5t170 66.5t170 -66.5t66 -168.5t-66 -168.5t-170 -66.5zM282 30q72 0 122 52t50 135t-50 135t-122 52t-122 -52t-50 -135t50 -135t122 -52z" />
<glyph unicode="p" horiz-adv-x="562" d="M74 434h56v-77q51 95 162 95q100 0 162 -65t62 -170q0 -101 -60.5 -168t-161.5 -67q-102 0 -160 85v-277h-60v644zM294 30q73 0 115.5 53t42.5 134q0 75 -41.5 131t-124.5 56q-69 0 -112.5 -54.5t-43.5 -132.5q0 -87 48.5 -137t115.5 -50z" />
<glyph unicode="q" horiz-adv-x="562" d="M488 -210h-60v277q-54 -85 -156 -85q-91 0 -158.5 61.5t-67.5 173.5q0 101 64 168t164 67q110 0 158 -95v77h56v-644zM272 30q71 0 115.5 51t44.5 136q0 78 -44 132.5t-114 54.5q-79 0 -121.5 -57.5t-42.5 -129.5q0 -79 44.5 -133t117.5 -54z" />
<glyph unicode="r" horiz-adv-x="325" d="M74 0v434h60v-91q31 59 61.5 80t65.5 21q27 0 53 -10l-18 -56q-20 11 -43 11q-49 0 -84 -56t-35 -109v-224h-60z" />
<glyph unicode="s" horiz-adv-x="382" d="M32 89l49 26q12 -36 40 -60.5t69 -24.5q46 0 68.5 25t22.5 61q0 37 -25.5 56.5t-77.5 35.5q-29 9 -43.5 15t-37.5 19.5t-34 35.5t-11 52q0 55 39.5 88.5t99.5 33.5q93 0 135 -89l-45 -24q-13 30 -38.5 47.5t-56.5 17.5q-34 0 -54 -19.5t-20 -49.5q0 -9 1.5 -16.5t5.5 -14 t7.5 -11t11.5 -9.5t12.5 -7.5t15.5 -6.5t16 -5.5t18.5 -5.5t18.5 -6q59 -19 91.5 -50t32.5 -85q0 -51 -37.5 -93.5t-121.5 -42.5q-109 0 -152 107z" />
<glyph unicode="t" horiz-adv-x="250" d="M88 0v386h-70v48h70v168h60v-168h84v-48h-84v-386h-60z" />
<glyph unicode="u" horiz-adv-x="510" d="M376 434h60v-256q0 -19 -1.5 -36t-11.5 -49t-27.5 -54t-54 -39.5t-86.5 -17.5t-86.5 17.5t-54 39.5t-27.5 54t-11.5 49t-1.5 36v256h60v-263q0 -141 121 -141t121 141v263z" />
<glyph unicode="v" horiz-adv-x="434" d="M217 -22l-210 456h65l145 -329l145 329h65z" />
<glyph unicode="w" horiz-adv-x="694" d="M347 340l-140 -362l-200 456h70l133 -315l137 358l137 -358l133 315h70l-200 -456z" />
<glyph unicode="x" horiz-adv-x="417" d="M11 0l161 223l-154 211h77l116 -169l108 169h70l-144 -210l161 -224h-76l-123 182l-119 -182h-77z" />
<glyph unicode="y" horiz-adv-x="453" d="M11 434h68l163 -367l139 367h61l-256 -644h-65l90 214z" />
<glyph unicode="z" horiz-adv-x="425" d="M38 434h355l-273 -386h280v-48h-382l277 386h-257v48z" />
<glyph unicode="{" horiz-adv-x="331" d="M50 219v53q94 18 94 151q0 20 -2 58t-2 56q0 153 141 168v-46q-74 -8 -74 -101q0 -23 1.5 -50t1.5 -67q0 -29 -3 -50t-13.5 -50.5t-36 -53t-65.5 -39.5v-5q40 -16 65.5 -39.5t36 -53t13.5 -50.5t3 -50q0 -40 -1.5 -67t-1.5 -50q0 -93 74 -101v-46q-141 15 -141 168 q0 18 2 56t2 58q0 133 -94 151z" />
<glyph unicode="|" horiz-adv-x="156" d="M50 -224v1053h56v-1053h-56z" />
<glyph unicode="}" horiz-adv-x="331" d="M281 272v-53q-94 -18 -94 -151q0 -20 2 -58t2 -56q0 -153 -141 -168v46q74 8 74 101q0 23 -1.5 50t-1.5 67q0 29 3 50t13.5 50.5t36 53t65.5 39.5v5q-40 16 -65.5 39.5t-36 53t-13.5 50.5t-3 50q0 40 1.5 67t1.5 50q0 93 -74 101v46q141 -15 141 -168q0 -18 -2 -56 t-2 -58q0 -133 94 -151z" />
<glyph unicode="~" horiz-adv-x="600" d="M50 312v56q48 50 110 50q40 0 145 -40q106 -40 135 -40q58 0 110 50v-56q-48 -50 -110 -50q-40 0 -145 40q-106 40 -135 40q-58 0 -110 -50z" />
<glyph unicode="&#xa4;" horiz-adv-x="660" d="M121 179q-61 76 -61 171t61 171l-71 71l38 38l71 -71q76 61 171 61t171 -61l71 71l38 -38l-71 -71q61 -76 61 -171t-61 -171l71 -71l-38 -38l-71 71q-76 -61 -171 -61t-171 61l-71 -71l-38 38zM116 350q0 -89 62.5 -151.5t151.5 -62.5t151.5 62.5t62.5 151.5t-62.5 151.5 t-151.5 62.5t-151.5 -62.5t-62.5 -151.5z" />
<glyph unicode="&#xa6;" horiz-adv-x="156" d="M50 429v400h56v-400h-56zM50 -224v400h56v-400h-56z" />
<glyph unicode="&#xa7;" horiz-adv-x="472" d="M65 0h63q-2 -44 26 -74.5t86 -30.5q45 0 71 24t26 62q0 17 -4 31.5t-9 24.5t-16.5 19.5t-18 14.5t-22.5 12t-22.5 9t-25 8t-22.5 7q-148 47 -148 175q0 56 31 97t82 59q-45 17 -66 52t-21 76q0 61 43.5 107.5t119.5 46.5q44 0 77.5 -16.5t51.5 -43.5t26.5 -57t7.5 -60 h-63v18q0 37 -24.5 70t-73.5 33q-43 0 -72 -28t-29 -72q0 -41 24 -63.5t92 -40.5q34 -9 59.5 -20t52.5 -30t41.5 -50t14.5 -72q0 -58 -33 -99.5t-83 -61.5q42 -16 68 -53t26 -89q0 -66 -45.5 -106t-117.5 -40q-51 0 -87.5 16.5t-53.5 42.5t-24.5 51t-7.5 51zM236 161 q53 0 86 34.5t33 88.5q0 58 -35.5 90t-83.5 32q-51 0 -85 -35t-34 -87q0 -53 33.5 -88t85.5 -35z" />
<glyph unicode="&#xa9;" horiz-adv-x="840" d="M50 350q0 152 109 261t261 109t261 -109t109 -261t-109 -261t-261 -109t-261 109t-109 261zM106 350q0 -130 92 -222t222 -92t222 92t92 222t-92 222t-222 92t-222 -92t-92 -222zM572 156q-64 -37 -138 -37q-105 0 -166 69t-61 162q0 94 63 162.5t164 68.5q70 0 138 -38 v-78q-71 46 -138 46q-65 0 -104 -45.5t-39 -115.5q0 -72 39 -116.5t104 -44.5q70 0 138 43v-76z" />
<glyph unicode="&#xab;" horiz-adv-x="434" d="M42 220l150 211l42 -28l-131 -183l131 -183l-42 -28zM196 220l150 211l42 -28l-131 -183l131 -183l-42 -28z" />
<glyph unicode="&#xac;" horiz-adv-x="630" d="M50 228v56h500v-216h-60v160h-440z" />
<glyph unicode="&#xae;" horiz-adv-x="846" d="M53 350q0 152 109 261t261 109t261 -109t109 -261t-109 -261t-261 -109t-261 109t-109 261zM109 350q0 -130 92 -222t222 -92t222 92t92 222t-92 222t-222 92t-222 -92t-92 -222zM287 133v434h164q13 0 26.5 -2t32 -9.5t32 -19.5t23.5 -34.5t10 -51.5q0 -52 -35 -83.5 t-77 -31.5h-10l137 -202h-82l-132 200h-19v-200h-70zM357 511v-122h60q47 0 65 16t18 45t-15 45t-58 16h-70z" />
<glyph unicode="&#xb0;" horiz-adv-x="302" d="M39 609q0 47 32.5 79.5t79.5 32.5t79.5 -32.5t32.5 -79.5t-32.5 -79.5t-79.5 -32.5t-79.5 32.5t-32.5 79.5zM87 609q0 -25 19.5 -44.5t44.5 -19.5t44.5 19.5t19.5 44.5t-19.5 44.5t-44.5 19.5t-44.5 -19.5t-19.5 -44.5z" />
<glyph unicode="&#xb1;" horiz-adv-x="600" d="M50 418h222v222h56v-222h222v-56h-222v-192h-56v192h-222v56zM50 116h500v-56h-500v56z" />
<glyph unicode="&#xb5;" horiz-adv-x="506" d="M432 434v-434h-60v72q-16 -33 -41.5 -53t-43 -24.5t-34.5 -4.5t-34.5 4.5t-43 24.5t-41.5 53v-282h-60v644h60v-218q0 -72 32 -125t87 -53t87 53t32 125v218h60z" />
<glyph unicode="&#xb6;" horiz-adv-x="491" d="M205 -185v555q-70 2 -117.5 48.5t-47.5 116.5t47.5 116t117.5 49h62v-885h-62zM362 -185v885h62v-885h-62z" />
<glyph unicode="&#xb7;" horiz-adv-x="232" d="M70 258q0 20 13 33t33 13t33 -13t13 -33t-13 -33t-33 -13t-33 13t-13 33z" />
<glyph unicode="&#xbb;" horiz-adv-x="434" d="M392 219l-150 -211l-42 28l131 183l-131 183l42 28zM238 219l-150 -211l-42 28l131 183l-131 183l42 28z" />
<glyph unicode="&#x401;" horiz-adv-x="519" d="M88 0v700h375v-56h-307v-224h296v-56h-296v-308h307v-56h-375zM153 800q0 20 13.5 33t32.5 13t32.5 -13t13.5 -33t-13.5 -33t-32.5 -13t-32.5 13t-13.5 33zM314 800q0 20 13 33t33 13t33 -13t13 -33t-13 -33t-33 -13t-33 13t-13 33z" />
<glyph unicode="&#x402;" horiz-adv-x="689" d="M200 0v644h-189v56h473v-56h-216v-241q71 22 136 22q107 0 173 -58t66 -160q0 -210 -245 -207v56h39q54 0 95 36.5t41 114.5q0 80 -47.5 121t-122.5 41q-71 0 -135 -26v-343h-68z" />
<glyph unicode="&#x403;" horiz-adv-x="407" d="M88 0v700h308v-56h-240v-644h-68zM124 740l102 111h98l-134 -111h-66z" />
<glyph unicode="&#x404;" horiz-adv-x="672" d="M637 112v-76q-103 -56 -220 -56q-160 0 -260.5 105.5t-100.5 264.5q0 170 102 270t260 100q122 0 219 -58v-75q-95 77 -217 77q-113 0 -199.5 -76.5t-90.5 -195.5h423v-56h-425q4 -129 89 -214.5t201 -85.5q112 0 219 76z" />
<glyph unicode="&#x405;" horiz-adv-x="521" d="M443 614l-54 -32q-36 82 -126 82q-66 0 -95.5 -33.5t-29.5 -73.5q0 -22 8.5 -40.5t20 -32t33 -27t38.5 -22t44 -21.5q10 -5 15 -7q31 -14 41 -19t38.5 -21.5t41 -30t30 -35t24.5 -48.5t7 -59q0 -91 -63 -152.5t-162 -61.5q-64 0 -114 28.5t-73 60t-39 68.5l64 32 q18 -54 60 -93.5t108 -39.5q65 0 106 44t41 110q0 61 -36 93t-121 72q-40 18 -66 33.5t-56 40t-45 56t-15 70.5q0 27 8.5 52.5t28 52.5t59.5 43.5t96 16.5q134 0 183 -106z" />
<glyph unicode="&#x406;" horiz-adv-x="244" d="M88 0v700h68v-700h-68z" />
<glyph unicode="&#x407;" horiz-adv-x="244" d="M88 0v700h68v-700h-68zM15 800q0 20 13.5 33t32.5 13t32.5 -13t13.5 -33t-13.5 -33t-32.5 -13t-32.5 13t-13.5 33zM137 800q0 20 13.5 33t32.5 13t32.5 -13t13.5 -33t-13.5 -33t-32.5 -13t-32.5 13t-13.5 33z" />
<glyph unicode="&#x408;" horiz-adv-x="413" d="M88 47l43 45q42 -56 104 -56q57 0 78 37t21 115v512h68v-516q0 -21 -0.5 -32t-3.5 -35.5t-8.5 -40t-18 -35.5t-30.5 -32t-46 -20.5t-63 -8.5q-83 0 -144 67z" />
<glyph unicode="&#x409;" horiz-adv-x="956" d="M164 700h389v-294h116q241 0 241 -201q0 -205 -270 -205h-155v644h-253v-377q0 -60 -5.5 -102.5t-22 -84.5t-52.5 -64t-90 -22q-28 0 -55 6v56q25 -5 38 -5q38 0 63 16t36.5 48.5t15.5 66t4 82.5v436zM553 56h98q189 0 189 149q0 145 -172 145h-115v-294z" />
<glyph unicode="&#x40a;" horiz-adv-x="1030" d="M88 0v700h68v-294h403v294h68v-294h116q241 0 241 -201q0 -205 -270 -205h-155v350h-403v-350h-68zM627 56h98q189 0 189 149q0 145 -172 145h-115v-294z" />
<glyph unicode="&#x40b;" horiz-adv-x="711" d="M200 0v644h-189v56h474v-56h-217v-245q97 7 157 7q72 0 117.5 -13t66 -40.5t26.5 -54.5t6 -70v-228h-68v212q0 40 -9 67.5t-20.5 41t-35.5 20.5t-39.5 8t-46.5 1h-8q-54 0 -146 -7v-343h-68z" />
<glyph unicode="&#x40c;" horiz-adv-x="571" d="M88 0v700h68v-325l313 325h84l-332 -339l339 -361h-91l-313 340v-340h-68zM206 740l102 111h98l-134 -111h-66z" />
<glyph unicode="&#x40e;" horiz-adv-x="561" d="M14 700h77l212 -417l189 417h69l-320 -700h-69l97 212zM280 740q-107 0 -144 89l55 22q18 -59 89 -59t89 59l55 -22q-8 -18 -14 -26q-42 -63 -130 -63z" />
<glyph unicode="&#x40f;" horiz-adv-x="717" d="M88 0v700h68v-644h405v644h68v-700h-239v-170h-63v170h-239z" />
<glyph unicode="&#x410;" horiz-adv-x="650" d="M11 0l314 720l314 -720h-70l-97 228h-294l-97 -228h-70zM202 284h246l-123 287z" />
<glyph unicode="&#x411;" horiz-adv-x="558" d="M88 0v700h352v-56h-284v-231h115q241 0 241 -205q0 -208 -270 -208h-154zM156 56h97q106 0 147.5 44.5t41.5 107.5q0 36 -10 63.5t-29 42.5t-36 25t-41 13.5t-33.5 4t-22.5 0.5h-114v-301z" />
<glyph unicode="&#x412;" horiz-adv-x="564" d="M88 700h144q227 0 227 -166q0 -54 -29 -94.5t-76 -58.5v-2q70 -5 115.5 -53t45.5 -126q0 -56 -22 -98t-58 -64t-77.5 -31t-85.5 -7h-184v700zM156 401h89q10 0 21 1t35.5 8t42 19.5t31.5 39t14 62.5q0 48 -33 80.5t-110 32.5h-90v-243zM156 56h116q92 0 132.5 42.5 t40.5 101.5q0 30 -9 54t-21.5 38.5t-32 25.5t-34.5 16t-34.5 7.5t-27.5 3t-17 0.5h-113v-289z" />
<glyph unicode="&#x413;" horiz-adv-x="407" d="M88 0v700h308v-56h-240v-644h-68z" />
<glyph unicode="&#x414;" horiz-adv-x="638" d="M149 700h391v-644h84v-196h-63v140h-487v-140h-63v196q67 -4 102.5 69.5t35.5 208.5v366zM217 644v-310q0 -110 -16.5 -173t-64.5 -105h336v588h-255z" />
<glyph unicode="&#x415;" horiz-adv-x="519" d="M88 0v700h375v-56h-307v-224h296v-56h-296v-308h307v-56h-375z" />
<glyph unicode="&#x416;" horiz-adv-x="846" d="M389 0v343l-287 -343h-91l313 358l-295 342h84l276 -329v329h68v-329l276 329h84l-295 -342l313 -358h-91l-287 343v-343h-68z" />
<glyph unicode="&#x417;" horiz-adv-x="546" d="M104 579l-53 35q71 106 215 106q81 0 135 -49.5t54 -128.5q0 -59 -31.5 -102.5t-79.5 -56.5v-3q62 -11 104 -60t42 -126q0 -105 -71 -159.5t-171 -54.5q-151 0 -227 148l58 30q21 -51 66 -86.5t103 -35.5q74 0 123 44.5t49 119.5q0 71 -48.5 111.5t-129.5 40.5h-71v56h69 q61 0 103 29.5t42 101.5q0 34 -12 59.5t-27.5 37.5t-36.5 19t-31.5 8t-19.5 1q-103 0 -154 -85z" />
<glyph unicode="&#x418;" horiz-adv-x="722" d="M88 700h68v-554l478 582v-728h-68v554l-478 -582v728z" />
<glyph unicode="&#x419;" horiz-adv-x="722" d="M88 700h68v-554l478 582v-728h-68v554l-478 -582v728zM361 740q-107 0 -144 89l55 22q18 -59 89 -59t89 59l55 -22q-37 -89 -144 -89z" />
<glyph unicode="&#x41a;" horiz-adv-x="571" d="M88 0v700h68v-325l313 325h84l-332 -339l339 -361h-91l-313 340v-340h-68z" />
<glyph unicode="&#x41b;" horiz-adv-x="641" d="M164 700h389v-700h-68v644h-253v-377q0 -60 -5.5 -102.5t-22 -84.5t-52.5 -64t-90 -22q-28 0 -55 6v56q18 -6 38 -6q38 0 63 16t36.5 48t15.5 66t4 84v436z" />
<glyph unicode="&#x41c;" horiz-adv-x="858" d="M42 0l95 728l292 -624l292 624l95 -728h-63l-67 518l-257 -546l-257 546l-67 -518h-63z" />
<glyph unicode="&#x41d;" horiz-adv-x="715" d="M88 0v700h68v-287h403v287h68v-700h-68v357h-403v-357h-68z" />
<glyph unicode="&#x41e;" horiz-adv-x="868" d="M434 -20q-159 0 -268.5 103.5t-109.5 266.5t109.5 266.5t268.5 103.5t268.5 -103.5t109.5 -266.5t-109.5 -266.5t-268.5 -103.5zM434 36q130 0 218 88.5t88 225.5t-88 225.5t-218 88.5t-218 -88.5t-88 -225.5t88 -225.5t218 -88.5z" />
<glyph unicode="&#x41f;" horiz-adv-x="715" d="M88 700h539v-700h-68v644h-403v-644h-68v700z" />
<glyph unicode="&#x420;" horiz-adv-x="538" d="M88 0v700h194q210 0 210 -185q0 -186 -210 -186h-126v-329h-68zM156 644v-259h123q143 0 143 130q0 129 -143 129h-123z" />
<glyph unicode="&#x421;" horiz-adv-x="700" d="M672 140v-78q-108 -82 -255 -82q-158 0 -259.5 106.5t-101.5 263.5q0 161 105 265.5t256 104.5q143 0 255 -84v-79q-109 107 -253 107q-119 0 -205 -90t-86 -224q0 -129 82 -221.5t208 -92.5q143 0 254 104z" />
<glyph unicode="&#x422;" horiz-adv-x="464" d="M198 0v644h-187v56h442v-56h-187v-644h-68z" />
<glyph unicode="&#x423;" horiz-adv-x="561" d="M14 700h77l212 -417l189 417h69l-320 -700h-69l97 212z" />
<glyph unicode="&#x424;" horiz-adv-x="866" d="M399 0v98h-29q-160 0 -240.5 78.5t-80.5 194.5q0 124 86.5 198.5t234.5 74.5h29v84h68v-84h29q148 0 234.5 -74.5t86.5 -198.5q0 -116 -80.5 -194.5t-240.5 -78.5h-29v-98h-68zM467 588v-434q136 3 207 50.5t71 166.5q0 213 -278 217zM399 154v434q-278 -4 -278 -217 q0 -119 71 -166.5t207 -50.5z" />
<glyph unicode="&#x425;" horiz-adv-x="506" d="M7 0l211 357l-195 343h76l154 -286l154 286h76l-195 -343l211 -357h-76l-170 304l-170 -304h-76z" />
<glyph unicode="&#x426;" horiz-adv-x="715" d="M88 0v700h68v-644h396v644h68v-644h84v-196h-63v140h-553z" />
<glyph unicode="&#x427;" horiz-adv-x="598" d="M442 0v315q-84 -7 -157 -7q-44 0 -78.5 6t-57 14.5t-38.5 24.5t-23.5 29t-12 34.5t-5 34.5t-0.5 36v213h68v-198q0 -40 5 -62.5t21 -41.5t47.5 -26.5t84.5 -7.5q57 0 146 7v329h68v-700h-68z" />
<glyph unicode="&#x428;" horiz-adv-x="992" d="M88 0v700h68v-644h306v644h68v-644h306v644h68v-700h-816z" />
<glyph unicode="&#x429;" horiz-adv-x="1076" d="M88 0v700h68v-644h306v644h68v-644h306v644h68v-644h84v-196h-63v140h-837z" />
<glyph unicode="&#x42a;" horiz-adv-x="649" d="M178 0v644h-167v56h235v-294h116q241 0 241 -201q0 -205 -270 -205h-155zM246 56h98q189 0 189 149q0 61 -38 103t-133 42h-116v-294z" />
<glyph unicode="&#x42b;" horiz-adv-x="746" d="M88 0v700h68v-294h117q240 0 240 -201q0 -205 -269 -205h-156zM156 56h99q188 0 188 149q0 145 -171 145h-116v-294zM590 0v700h68v-700h-68z" />
<glyph unicode="&#x42c;" horiz-adv-x="559" d="M88 0v700h68v-294h116q241 0 241 -201q0 -205 -270 -205h-155zM156 56h98q189 0 189 149q0 145 -172 145h-115v-294z" />
<glyph unicode="&#x42d;" horiz-adv-x="679" d="M42 36v76q107 -76 219 -76q116 0 201 85.5t89 214.5h-425v56h423q-4 119 -90.5 195.5t-199.5 76.5q-122 0 -217 -77v75q95 58 220 58q158 0 259.5 -100t101.5 -270q0 -159 -100.5 -264.5t-260.5 -105.5q-117 0 -220 56z" />
<glyph unicode="&#x42e;" horiz-adv-x="1054" d="M156 391h88q4 61 31 119t73 105t117 76t155 29q161 0 269.5 -103.5t108.5 -266.5t-108.5 -266.5t-269.5 -103.5q-93 0 -166.5 32.5t-117 85.5t-67 113.5t-26.5 123.5h-87v-335h-68v700h68v-309zM620 36q130 0 218 88t88 226t-88 226t-218 88q-129 0 -217 -88t-88 -226 t88 -226t217 -88z" />
<glyph unicode="&#x42f;" horiz-adv-x="550" d="M70 0l190 311q-86 -2 -145 50t-59 138q0 22 4.5 45t20 52.5t40.5 51.5t71 37t106 15h164v-700h-68v308h-62l-185 -308h-77zM394 364v280h-95q-173 0 -173 -140t166 -140h102z" />
<glyph unicode="&#x430;" horiz-adv-x="562" d="M432 357v77h56v-434h-56v74q-25 -45 -68 -68.5t-92 -23.5q-101 0 -163.5 67.5t-62.5 167.5q0 102 63.5 168.5t163.5 66.5q108 0 159 -95zM272 30q70 0 115 51.5t45 135.5q0 79 -44 133t-114 54q-71 0 -117.5 -53t-46.5 -134q0 -78 44.5 -132.5t117.5 -54.5z" />
<glyph unicode="&#x431;" horiz-adv-x="564" d="M104 345h3q24 50 73.5 78.5t108.5 28.5q96 0 159.5 -66t63.5 -169q0 -108 -65.5 -171.5t-166.5 -63.5q-64 0 -111 25t-73 68t-38 94t-12 111q0 161 52.5 257.5t175.5 126.5q23 6 60 13t53.5 11t36 16t30.5 31h64q-7 -15 -14 -27.5t-17 -22t-17 -16.5t-20 -13.5t-18.5 -10 t-22 -8t-20.5 -5.5t-23 -5t-22 -5q-130 -29 -179.5 -87.5t-60.5 -189.5zM279 30q58 0 98 30t55.5 70.5t15.5 86.5q0 75 -45 131t-124 56q-75 0 -122 -55t-47 -132q0 -76 46 -131.5t123 -55.5z" />
<glyph unicode="&#x432;" horiz-adv-x="459" d="M74 434h162q43 0 72.5 -11.5t42 -30t17 -34t4.5 -32.5q0 -29 -14.5 -55.5t-45.5 -38.5v-2q38 -5 66 -34.5t28 -72.5q0 -18 -4.5 -34.5t-18.5 -39t-48 -36t-85 -13.5h-176v434zM134 249h92q45 0 67 15.5t22 53.5q0 68 -89 68h-92v-137zM134 48h111q98 0 98 73q0 80 -95 80 h-114v-153z" />
<glyph unicode="&#x433;" horiz-adv-x="327" d="M74 0v434h242v-48h-182v-386h-60z" />
<glyph unicode="&#x434;" horiz-adv-x="478" d="M113 434h281v-386h63v-160h-56v112h-331v-112h-56v160q33 2 54.5 18t30.5 44t11.5 52.5t2.5 59.5v212zM334 48v338h-161v-205q0 -91 -53 -133h214z" />
<glyph unicode="&#x435;" horiz-adv-x="515" d="M423 137l46 -23q-66 -132 -200 -132q-103 0 -163 70.5t-60 164.5q0 98 59.5 166.5t163.5 68.5q53 0 93.5 -21t62.5 -54t33 -67.5t11 -68.5v-29h-359q-2 -70 41 -126t118 -56q103 0 154 107zM115 260h294q-2 57 -39.5 100.5t-99.5 43.5q-61 0 -103.5 -40t-51.5 -104z" />
<glyph unicode="&#x436;" horiz-adv-x="628" d="M284 0v226l-196 -226h-77l210 232l-196 202h74l185 -197v197h60v-197l185 197h74l-196 -202l210 -232h-77l-196 226v-226h-60z" />
<glyph unicode="&#x437;" horiz-adv-x="431" d="M92 327l-46 30q57 95 173 95q64 0 105.5 -36t41.5 -94q0 -68 -76 -96v-2q35 -7 61.5 -34.5t26.5 -74.5q0 -65 -50.5 -99t-120.5 -34q-132 0 -182 102l49 25q42 -79 133 -79q47 0 77 23.5t30 65.5q0 27 -12 45t-32 24.5t-32 8.5t-24 2h-55v48h55q42 0 67 19t25 58 q0 27 -11 45t-29 24.5t-28.5 8.5t-21.5 2q-79 0 -124 -77z" />
<glyph unicode="&#x438;" horiz-adv-x="503" d="M74 434h60v-315l295 340v-459h-60v312l-295 -340v462z" />
<glyph unicode="&#x439;" horiz-adv-x="502" d="M74 434h60v-315l294 340v-459h-60v312l-294 -340v462zM258 518q-50 0 -90 27.5t-54 73.5l55 22q19 -75 89 -75t89 75l55 -22q-14 -46 -54 -73.5t-90 -27.5z" />
<glyph unicode="&#x43a;" horiz-adv-x="428" d="M74 0v434h60v-194l194 194h72l-209 -202l226 -232h-77l-206 217v-217h-60z" />
<glyph unicode="&#x43b;" horiz-adv-x="475" d="M401 434v-434h-60v386h-186v-259q0 -130 -144 -127v48q53 -1 68.5 27t15.5 88v271h306z" />
<glyph unicode="&#x43c;" horiz-adv-x="602" d="M21 0l103 466l177 -382l177 382l103 -466h-60l-62 308l-158 -336l-158 336l-62 -308h-60z" />
<glyph unicode="&#x43d;" horiz-adv-x="512" d="M74 0v434h60v-188h244v188h60v-434h-60v198h-244v-198h-60z" />
<glyph unicode="&#x43e;" horiz-adv-x="564" d="M282 -18q-104 0 -170 66.5t-66 168.5t66 168.5t170 66.5t170 -66.5t66 -168.5t-66 -168.5t-170 -66.5zM282 30q72 0 122 52t50 135t-50 135t-122 52t-122 -52t-50 -135t50 -135t122 -52z" />
<glyph unicode="&#x43f;" horiz-adv-x="498" d="M74 434h350v-434h-60v386h-230v-386h-60v434z" />
<glyph unicode="&#x440;" horiz-adv-x="562" d="M74 434h56v-77q51 95 162 95q100 0 162 -65t62 -170q0 -101 -60.5 -168t-161.5 -67q-102 0 -160 85v-277h-60v644zM294 30q73 0 115.5 53t42.5 134q0 75 -41.5 131t-124.5 56q-69 0 -112.5 -54.5t-43.5 -132.5q0 -87 48.5 -137t115.5 -50z" />
<glyph unicode="&#x441;" horiz-adv-x="457" d="M429 84v-63q-64 -39 -134 -39q-108 0 -178.5 66t-70.5 169q0 104 70 169.5t178 65.5q82 0 135 -37v-59q-68 48 -131 48q-86 0 -137 -54t-51 -133q0 -84 52 -135.5t130 -51.5q76 0 137 54z" />
<glyph unicode="&#x442;" horiz-adv-x="390" d="M165 0v386h-154v48h368v-48h-154v-386h-60z" />
<glyph unicode="&#x443;" horiz-adv-x="453" d="M11 434h68l163 -367l139 367h61l-256 -644h-65l90 214z" />
<glyph unicode="&#x444;" horiz-adv-x="670" d="M305 -210v203q-107 -1 -183 56.5t-76 167.5t76 167.5t183 56.5v259h60v-259q107 1 183 -56.5t76 -167.5t-76 -167.5t-183 -56.5v-203h-60zM365 393v-352q25 0 49 4t51.5 16t47.5 30.5t33.5 51t13.5 74.5t-13.5 74.5t-33.5 51t-47.5 30.5t-51.5 16t-49 4zM305 41v352 q-25 0 -49 -4t-51.5 -16t-47.5 -30.5t-33.5 -51t-13.5 -74.5t13.5 -74.5t33.5 -51t47.5 -30.5t51.5 -16t49 -4z" />
<glyph unicode="&#x445;" horiz-adv-x="417" d="M11 0l161 223l-154 211h77l116 -169l108 169h70l-144 -210l161 -224h-76l-123 182l-119 -182h-77z" />
<glyph unicode="&#x446;" horiz-adv-x="494" d="M74 0v434h60v-386h216v386h60v-386h70v-160h-56v112h-350z" />
<glyph unicode="&#x447;" horiz-adv-x="449" d="M315 0v175q-70 -10 -114 -10q-80 0 -110.5 31t-30.5 107v131h60v-131q0 -55 20 -73t77 -18q40 0 98 8v214h60v-434h-60z" />
<glyph unicode="&#x448;" horiz-adv-x="734" d="M74 0v434h60v-386h203v386h60v-386h203v386h60v-434h-586z" />
<glyph unicode="&#x449;" horiz-adv-x="745" d="M74 0v434h60v-386h203v386h60v-386h203v386h60v-386h71v-160h-56v112h-601z" />
<glyph unicode="&#x44a;" horiz-adv-x="462" d="M176 258h86q92 0 128.5 -37.5t36.5 -91.5q0 -129 -166 -129h-145v386h-105v48h165v-176zM176 48h81q19 0 31.5 1.5t32.5 8t31 25t11 46.5q0 81 -105 81h-82v-162z" />
<glyph unicode="&#x44b;" horiz-adv-x="575" d="M134 258h86q165 0 165 -129t-166 -129h-145v434h60v-176zM134 48h81q19 0 31.5 1.5t32.5 8t31 25t11 46.5q0 81 -105 81h-82v-162zM441 0v434h60v-434h-60z" />
<glyph unicode="&#x44c;" horiz-adv-x="420" d="M134 258h86q165 0 165 -129t-166 -129h-145v434h60v-176zM134 48h81q19 0 31.5 1.5t32.5 8t31 25t11 46.5q0 81 -105 81h-82v-162z" />
<glyph unicode="&#x44d;" horiz-adv-x="421" d="M28 4v56q46 -30 102 -30q49 0 85.5 16.5t56 43t28.5 53.5t11 56h-234v48h234q-3 26 -13 50.5t-30 50t-57.5 41t-87.5 15.5q-44 0 -95 -23v53q44 18 105 18q110 0 176 -64t66 -171q0 -48 -14.5 -88t-38.5 -67t-55.5 -45.5t-65 -26.5t-67.5 -8q-58 0 -106 22z" />
<glyph unicode="&#x44e;" horiz-adv-x="732" d="M134 247h81q14 92 75.5 148.5t159.5 56.5q103 0 169.5 -67t66.5 -168q0 -102 -66 -168.5t-170 -66.5q-106 0 -170 66.5t-65 150.5h-81v-199h-60v434h60v-187zM450 30q80 0 126 56.5t46 130.5t-46 130.5t-126 56.5q-72 0 -121.5 -52t-49.5 -135t49.5 -135t121.5 -52z" />
<glyph unicode="&#x44f;" horiz-adv-x="428" d="M28 0l126 187q-46 5 -77.5 36t-31.5 85q0 53 35.5 89.5t117.5 36.5h156v-434h-60v182h-84l-115 -182h-67zM294 230v156h-87q-102 0 -102 -78t102 -78h87z" />
<glyph unicode="&#x451;" horiz-adv-x="515" d="M423 137l46 -23q-66 -132 -200 -132q-103 0 -163 70.5t-60 164.5q0 98 59.5 166.5t163.5 68.5q53 0 93.5 -21t62.5 -54t33 -67.5t11 -68.5v-29h-359q-2 -70 41 -126t118 -56q103 0 154 107zM115 260h294q-2 57 -39.5 100.5t-99.5 43.5q-61 0 -103.5 -40t-51.5 -104z M131 581q0 19 13.5 32.5t32.5 13.5t32.5 -13.5t13.5 -32.5t-13.5 -32.5t-32.5 -13.5t-32.5 13.5t-13.5 32.5zM292 581q0 19 13 32.5t33 13.5t33 -13.5t13 -32.5t-13 -32.5t-33 -13.5t-33 13.5t-13 32.5z" />
<glyph unicode="&#x452;" horiz-adv-x="486" d="M73 0v570h-66v48h66v117h60v-117h224v-48h-224v-208q49 90 146 90q44 0 76 -19t47.5 -44.5t25 -61t11 -57.5t1.5 -45q0 -106 -40.5 -181.5t-123.5 -160.5l-35 33q81 101 108 165t27 152q0 21 -3 43t-12 54.5t-32 53t-57 20.5q-49 0 -94 -45.5t-45 -132.5v-226h-60z" />
<glyph unicode="&#x453;" horiz-adv-x="327" d="M74 0v434h242v-48h-182v-386h-60zM140 511l74 126h98l-116 -126h-56z" />
<glyph unicode="&#x454;" horiz-adv-x="421" d="M344 247v-48h-234q5 -72 51 -120.5t130 -48.5q56 0 102 30v-56q-48 -22 -106 -22q-60 0 -113 23t-90.5 78t-37.5 134q0 106 66 170.5t176 64.5q56 0 105 -18v-53q-51 23 -96 23q-82 0 -132.5 -46.5t-52.5 -110.5h232z" />
<glyph unicode="&#x455;" horiz-adv-x="382" d="M32 89l49 26q12 -36 40 -60.5t69 -24.5q46 0 68.5 25t22.5 61q0 37 -25.5 56.5t-77.5 35.5q-29 9 -43.5 15t-37.5 19.5t-34 35.5t-11 52q0 55 39.5 88.5t99.5 33.5q93 0 135 -89l-45 -24q-13 30 -38.5 47.5t-56.5 17.5q-34 0 -54 -19.5t-20 -49.5q0 -16 5.5 -28t17 -20 t19 -12t22.5 -9q91 -33 114 -47q52 -35 53 -101q0 -51 -37.5 -93.5t-121.5 -42.5q-109 0 -152 107z" />
<glyph unicode="&#x456;" horiz-adv-x="208" d="M74 434h60v-434h-60v434zM58 581q0 19 13 32.5t33 13.5t33 -13.5t13 -32.5t-13 -32.5t-33 -13.5t-33 13.5t-13 32.5z" />
<glyph unicode="&#x457;" horiz-adv-x="244" d="M92 434h60v-434h-60v434zM15 581q0 19 13.5 32.5t32.5 13.5t32.5 -13.5t13.5 -32.5t-13.5 -32.5t-32.5 -13.5t-32.5 13.5t-13.5 32.5zM137 581q0 19 13.5 32.5t32.5 13.5t32.5 -13.5t13.5 -32.5t-13.5 -32.5t-32.5 -13.5t-32.5 13.5t-13.5 32.5z" />
<glyph unicode="&#x458;" horiz-adv-x="208" d="M74 434h60v-644h-60v644zM58 581q0 19 13 32.5t33 13.5t33 -13.5t13 -32.5t-13 -32.5t-33 -13.5t-33 13.5t-13 32.5z" />
<glyph unicode="&#x459;" horiz-adv-x="687" d="M401 434v-176h86q165 0 165 -129t-166 -129h-145v386h-186v-259q0 -130 -144 -127v48q52 -1 68 27.5t16 87.5v271h306zM401 48h81q19 0 31.5 1.5t32.5 8t31 25t11 46.5q0 81 -105 81h-82v-162z" />
<glyph unicode="&#x45a;" horiz-adv-x="724" d="M74 0v434h60v-176h244v176h60v-176h86q165 0 165 -129t-166 -129h-145v210h-244v-210h-60zM438 48h81q19 0 31.5 1.5t32.5 8t31 25t11 46.5q0 81 -105 81h-82v-162z" />
<glyph unicode="&#x45b;" horiz-adv-x="504" d="M73 0v570h-66v48h66v117h60v-117h224v-48h-224v-208q46 90 146 90q42 0 72.5 -16t45 -36t23 -48.5t9.5 -43.5t1 -30v-278h-60v270q0 25 -2.5 44t-11.5 42t-30.5 35.5t-53.5 12.5q-60 0 -99.5 -51t-39.5 -127v-226h-60z" />
<glyph unicode="&#x45c;" horiz-adv-x="428" d="M74 0v434h60v-194l194 194h72l-209 -202l226 -232h-77l-206 217v-217h-60zM149 511l74 126h98l-116 -126h-56z" />
<glyph unicode="&#x45e;" horiz-adv-x="453" d="M11 434h68l163 -367l139 367h61l-256 -644h-65l90 214zM226 518q-50 0 -90 27.5t-54 73.5l55 22q19 -75 89 -75t89 75l55 -22q-14 -46 -54 -73.5t-90 -27.5z" />
<glyph unicode="&#x45f;" horiz-adv-x="498" d="M74 0v434h60v-386h230v386h60v-434h-147v-126h-56v126h-147z" />
<glyph unicode="&#x490;" horiz-adv-x="407" d="M88 0v700h245v119h63v-175h-240v-644h-68z" />
<glyph unicode="&#x491;" horiz-adv-x="327" d="M74 0v434h186v112h56v-160h-182v-386h-60z" />
<glyph unicode="&#x2013;" horiz-adv-x="600" d="M50 228v56h500v-56h-500z" />
<glyph unicode="&#x2014;" horiz-adv-x="820" d="M39 276h742v-48h-742v48z" />
<glyph unicode="&#x2018;" horiz-adv-x="260" d="M214 705l-105 -232l-63 31l133 217z" />
<glyph unicode="&#x2019;" horiz-adv-x="260" d="M46 489l105 232l63 -31l-133 -217z" />
<glyph unicode="&#x201a;" horiz-adv-x="253" d="M46 -134l91 246l70 -33l-125 -230z" />
<glyph unicode="&#x201c;" horiz-adv-x="379" d="M214 705l-105 -232l-63 31l133 217zM333 698l-105 -232l-63 31l133 217z" />
<glyph unicode="&#x201d;" horiz-adv-x="379" d="M46 489l105 232l63 -31l-133 -217zM165 482l105 232l63 -31l-133 -217z" />
<glyph unicode="&#x201e;" horiz-adv-x="379" d="M46 -127l105 232l63 -31l-133 -218zM165 -134l105 232l63 -31l-133 -218z" />
<glyph unicode="&#x2020;" horiz-adv-x="540" d="M236 -210v651h-190v56h190v238h68v-238h190v-56h-190v-651h-68z" />
<glyph unicode="&#x2021;" horiz-adv-x="540" d="M304 28v-238h-68v238h-190v56h190v357h-190v56h190v238h68v-238h190v-56h-190v-357h190v-56h-190z" />
<glyph unicode="&#x2022;" horiz-adv-x="340" d="M50 332q0 50 35 85t85 35t85 -35t35 -85t-35 -85t-85 -35t-85 35t-35 85z" />
<glyph unicode="&#x2026;" horiz-adv-x="696" d="M70 35q0 19 13 32.5t33 13.5t33 -13.5t13 -32.5t-13 -32.5t-33 -13.5t-33 13.5t-13 32.5zM302 35q0 19 13 32.5t33 13.5t33 -13.5t13 -32.5t-13 -32.5t-33 -13.5t-33 13.5t-13 32.5zM534 35q0 19 13 32.5t33 13.5t33 -13.5t13 -32.5t-13 -32.5t-33 -13.5t-33 13.5 t-13 32.5z" />
<glyph unicode="&#x2030;" horiz-adv-x="1172" d="M150 -21l413 742h49l-413 -742h-49zM185 441q44 0 74.5 33t30.5 80t-30.5 80t-74.5 33t-74.5 -33t-30.5 -80t30.5 -80t74.5 -33zM25 554q0 67 46.5 113.5t113.5 46.5t113.5 -46.5t46.5 -113.5t-46.5 -113.5t-113.5 -46.5t-113.5 46.5t-46.5 113.5zM445 162 q0 67 46.5 113.5t113.5 46.5t113.5 -46.5t46.5 -113.5t-46.5 -113.5t-113.5 -46.5t-113.5 46.5t-46.5 113.5zM605 49q44 0 74.5 33t30.5 80t-30.5 80t-74.5 33t-74.5 -33t-30.5 -80t30.5 -80t74.5 -33zM827 162q0 67 46.5 113.5t113.5 46.5t113.5 -46.5t46.5 -113.5 t-46.5 -113.5t-113.5 -46.5t-113.5 46.5t-46.5 113.5zM987 49q44 0 74.5 33t30.5 80t-30.5 80t-74.5 33t-74.5 -33t-30.5 -80t30.5 -80t74.5 -33z" />
<glyph unicode="&#x2039;" horiz-adv-x="281" d="M42 220l150 211l43 -28l-131 -183l131 -183l-43 -28z" />
<glyph unicode="&#x203a;" horiz-adv-x="281" d="M239 219l-150 -211l-43 28l131 183l-131 183l43 28z" />
<glyph unicode="&#x20ac;" d="M505 670v-70q-57 59 -154 59q-84 0 -131.5 -59t-58.5 -154h298l-18 -53h-286q-1 -11 -1 -41q0 -31 1 -41h258l-17 -54h-234q11 -103 60 -159t130 -56q91 0 153 58v-70q-53 -49 -161 -49q-214 0 -246 276h-70l18 54h46q0 5 -0.5 19.5t-0.5 21.5t0.5 21t0.5 20h-64l18 53 h51q15 126 75.5 200t172.5 74q104 0 160 -50z" />
<glyph unicode="&#x2116;" horiz-adv-x="1159" d="M88 0v728l531 -585v557h68v-728l-531 585v-557h-68zM942 105q-84 0 -129.5 54.5t-45.5 134.5t45.5 134.5t129.5 54.5t129.5 -54.5t45.5 -134.5t-45.5 -134.5t-129.5 -54.5zM942 153q59 0 89 42t30 99t-30 99t-89 42t-89 -42t-30 -99t30 -99t89 -42zM792 0v48h301v-48 h-301z" />
<glyph unicode="&#x2122;" horiz-adv-x="652" d="M120 420v224h-70v56h200v-56h-70v-224h-60zM431 509l61 191h66l44 -280h-62l-28 182l-59 -182h-44l-59 182l-28 -182h-62l44 280h66z" />
<glyph unicode="&#x25fc;" horiz-adv-x="435" d="M0 435h435v-435h-435v435z" />
<glyph horiz-adv-x="2" d="M-312 511l74 126h98l-116 -126h-56z" />
<glyph horiz-adv-x="2" d="M-406 740l102 111h98l-134 -111h-66z" />
</font>
</defs>
</svg>
